{
    "asset" : {
        "generator" : "Khronos glTF Blender I/O v1.5.17",
        "version" : "2.0"
    },
    "scene" : 0,
    "scenes" : [
        {
            "name" : "Scene",
            "nodes" : [
                0
            ]
        }
    ],
    "nodes" : [
        {
            "mesh" : 0,
            "name" : "Sphere"
        }
    ],
    "materials" : [
        {
            "doubleSided" : true,
            "name" : "Yellow",
            "pbrMetallicRoughness" : {
                "baseColorFactor" : [
                    0.04696159437298775,
                    0.03207932785153389,
                    0.0038019863422960043,
                    1
                ],
                "metallicFactor" : 0,
                "roughnessFactor" : 0.2631579041481018
            }
        },
        {
            "doubleSided" : true,
            "name" : "Brown",
            "pbrMetallicRoughness" : {
                "baseColorFactor" : [
                    0.23954200744628906,
                    0.038225207477808,
                    0.0034318137913942337,
                    1
                ],
                "metallicFactor" : 0,
                "roughnessFactor" : 0.5047429800033569
            }
        }
    ],
    "meshes" : [
        {
            "name" : "Sphere",
            "primitives" : [
                {
                    "attributes" : {
                        "POSITION" : 0,
                        "NORMAL" : 1,
                        "TEXCOORD_0" : 2
                    },
                    "indices" : 3,
                    "material" : 0
                },
                {
                    "attributes" : {
                        "POSITION" : 4,
                        "NORMAL" : 5,
                        "TEXCOORD_0" : 6
                    },
                    "indices" : 7,
                    "material" : 1
                }
            ]
        }
    ],
    "accessors" : [
        {
            "bufferView" : 0,
            "componentType" : 5126,
            "count" : 2144,
            "max" : [
                1.000000238418579,
                2.375746250152588,
                1.0000003576278687
            ],
            "min" : [
                -1.000000238418579,
                -0.6042399406433105,
                -0.9999999403953552
            ],
            "type" : "VEC3"
        },
        {
            "bufferView" : 1,
            "componentType" : 5126,
            "count" : 2144,
            "type" : "VEC3"
        },
        {
            "bufferView" : 2,
            "componentType" : 5126,
            "count" : 2144,
            "type" : "VEC2"
        },
        {
            "bufferView" : 3,
            "componentType" : 5123,
            "count" : 3168,
            "type" : "SCALAR"
        },
        {
            "bufferView" : 4,
            "componentType" : 5126,
            "count" : 1120,
            "max" : [
                1.000000238418579,
                3.6530842781066895,
                1.0000003576278687
            ],
            "min" : [
                -0.9999997019767761,
                2.3757457733154297,
                -0.9999999403953552
            ],
            "type" : "VEC3"
        },
        {
            "bufferView" : 5,
            "componentType" : 5126,
            "count" : 1120,
            "type" : "VEC3"
        },
        {
            "bufferView" : 6,
            "componentType" : 5126,
            "count" : 1120,
            "type" : "VEC2"
        },
        {
            "bufferView" : 7,
            "componentType" : 5123,
            "count" : 1632,
            "type" : "SCALAR"
        }
    ],
    "bufferViews" : [
        {
            "buffer" : 0,
            "byteLength" : 25728,
            "byteOffset" : 0
        },
        {
            "buffer" : 0,
            "byteLength" : 25728,
            "byteOffset" : 25728
        },
        {
            "buffer" : 0,
            "byteLength" : 17152,
            "byteOffset" : 51456
        },
        {
            "buffer" : 0,
            "byteLength" : 6336,
            "byteOffset" : 68608
        },
        {
            "buffer" : 0,
            "byteLength" : 13440,
            "byteOffset" : 74944
        },
        {
            "buffer" : 0,
            "byteLength" : 13440,
            "byteOffset" : 88384
        },
        {
            "buffer" : 0,
            "byteLength" : 8960,
            "byteOffset" : 101824
        },
        {
            "buffer" : 0,
            "byteLength" : 3264,
            "byteOffset" : 110784
        }
    ],
    "buffers" : [
        {
            "byteLength" : 114048,
            "uri" : "data:application/octet-stream;base64,"
        }
    ]
}
