{
    "asset" : {
        "generator" : "Khronos glTF Blender I/O v1.5.17",
        "version" : "2.0"
    },
    "scene" : 0,
    "scenes" : [
        {
            "name" : "Scene",
            "nodes" : [
                1
            ]
        }
    ],
    "nodes" : [
        {
            "mesh" : 0,
            "name" : "Cylinder.001",
            "translation" : [
                0,
                1.8352735042572021,
                0
            ]
        },
        {
            "children" : [
                0
            ],
            "mesh" : 1,
            "name" : "Cylinder",
            "rotation" : [
                0.7071067690849304,
                0,
                0,
                0.7071068286895752
            ]
        }
    ],
    "animations" : [
        {
            "channels" : [
                {
                    "sampler" : 0,
                    "target" : {
                        "node" : 0,
                        "path" : "rotation"
                    }
                }
            ],
            "name" : "Cylinder.001Action",
            "samplers" : [
                {
                    "input" : 28,
                    "interpolation" : "LINEAR",
                    "output" : 29
                }
            ]
        }
    ],
    "materials" : [
        {
            "doubleSided" : true,
            "name" : "Grey",
            "pbrMetallicRoughness" : {
                "baseColorFactor" : [
                    0.01738787442445755,
                    0.01738787442445755,
                    0.01738787442445755,
                    1
                ],
                "metallicFactor" : 0,
                "roughnessFactor" : 0.5
            }
        },
        {
            "doubleSided" : true,
            "name" : "Yellow",
            "pbrMetallicRoughness" : {
                "baseColorFactor" : [
                    0.800654411315918,
                    0.41101399064064026,
                    0,
                    1
                ],
                "metallicFactor" : 0,
                "roughnessFactor" : 0.5
            }
        },
        {
            "doubleSided" : true,
            "name" : "Green",
            "pbrMetallicRoughness" : {
                "baseColorFactor" : [
                    0.00464103976264596,
                    0.18446752429008484,
                    0.0229659341275692,
                    1
                ],
                "metallicFactor" : 0,
                "roughnessFactor" : 0.5
            }
        },
        {
            "doubleSided" : true,
            "name" : "Blue",
            "pbrMetallicRoughness" : {
                "baseColorFactor" : [
                    0.0016879338072612882,
                    0.04557547718286514,
                    0.3757486641407013,
                    1
                ],
                "metallicFactor" : 0,
                "roughnessFactor" : 0.5
            }
        }
    ],
    "meshes" : [
        {
            "name" : "Cylinder.001",
            "primitives" : [
                {
                    "attributes" : {
                        "POSITION" : 0,
                        "NORMAL" : 1,
                        "TEXCOORD_0" : 2
                    },
                    "indices" : 3,
                    "material" : 0
                },
                {
                    "attributes" : {
                        "POSITION" : 4,
                        "NORMAL" : 5,
                        "TEXCOORD_0" : 6
                    },
                    "indices" : 7,
                    "material" : 1
                },
                {
                    "attributes" : {
                        "POSITION" : 8,
                        "NORMAL" : 9,
                        "TEXCOORD_0" : 10
                    },
                    "indices" : 11,
                    "material" : 2
                }
            ]
        },
        {
            "name" : "Cylinder",
            "primitives" : [
                {
                    "attributes" : {
                        "POSITION" : 12,
                        "NORMAL" : 13,
                        "TEXCOORD_0" : 14
                    },
                    "indices" : 15,
                    "material" : 3
                },
                {
                    "attributes" : {
                        "POSITION" : 16,
                        "NORMAL" : 17,
                        "TEXCOORD_0" : 18
                    },
                    "indices" : 19,
                    "material" : 1
                },
                {
                    "attributes" : {
                        "POSITION" : 20,
                        "NORMAL" : 21,
                        "TEXCOORD_0" : 22
                    },
                    "indices" : 23,
                    "material" : 2
                },
                {
                    "attributes" : {
                        "POSITION" : 24,
                        "NORMAL" : 25,
                        "TEXCOORD_0" : 26
                    },
                    "indices" : 27,
                    "material" : 0
                }
            ]
        }
    ],
    "accessors" : [
        {
            "bufferView" : 0,
            "componentType" : 5126,
            "count" : 71,
            "max" : [
                1.0823311805725098,
                0.43061563372612,
                0.31023406982421875
            ],
            "min" : [
                -1.0823311805725098,
                -0.2509709894657135,
                -0.3102339506149292
            ],
            "type" : "VEC3"
        },
        {
            "bufferView" : 1,
            "componentType" : 5126,
            "count" : 71,
            "type" : "VEC3"
        },
        {
            "bufferView" : 2,
            "componentType" : 5126,
            "count" : 71,
            "type" : "VEC2"
        },
        {
            "bufferView" : 3,
            "componentType" : 5123,
            "count" : 306,
            "type" : "SCALAR"
        },
        {
            "bufferView" : 4,
            "componentType" : 5126,
            "count" : 32,
            "max" : [
                1.4749242067337036,
                0.7188211679458618,
                0.21533915400505066
            ],
            "min" : [
                -1.4749243259429932,
                0.2531367242336273,
                -0.23155184090137482
            ],
            "type" : "VEC3"
        },
        {
            "bufferView" : 5,
            "componentType" : 5126,
            "count" : 32,
            "type" : "VEC3"
        },
        {
            "bufferView" : 6,
            "componentType" : 5126,
            "count" : 32,
            "type" : "VEC2"
        },
        {
            "bufferView" : 7,
            "componentType" : 5123,
            "count" : 114,
            "type" : "SCALAR"
        },
        {
            "bufferView" : 8,
            "componentType" : 5126,
            "count" : 27,
            "max" : [
                0.25669413805007935,
                0.7188211679458618,
                0.2566942572593689
            ],
            "min" : [
                -0.2566942572593689,
                0.43061563372612,
                -0.25669413805007935
            ],
            "type" : "VEC3"
        },
        {
            "bufferView" : 9,
            "componentType" : 5126,
            "count" : 27,
            "type" : "VEC3"
        },
        {
            "bufferView" : 10,
            "componentType" : 5126,
            "count" : 27,
            "type" : "VEC2"
        },
        {
            "bufferView" : 11,
            "componentType" : 5123,
            "count" : 96,
            "type" : "SCALAR"
        },
        {
            "bufferView" : 12,
            "componentType" : 5126,
            "count" : 196,
            "max" : [
                2.8025639057159424,
                1.4528175592422485,
                1.0000001192092896
            ],
            "min" : [
                -2.8025639057159424,
                -2.0399999618530273,
                -1.5095551013946533
            ],
            "type" : "VEC3"
        },
        {
            "bufferView" : 13,
            "componentType" : 5126,
            "count" : 196,
            "type" : "VEC3"
        },
        {
            "bufferView" : 14,
            "componentType" : 5126,
            "count" : 196,
            "type" : "VEC2"
        },
        {
            "bufferView" : 15,
            "componentType" : 5123,
            "count" : 930,
            "type" : "SCALAR"
        },
        {
            "bufferView" : 16,
            "componentType" : 5126,
            "count" : 93,
            "max" : [
                3.3582966327667236,
                1.060346007347107,
                0.20355528593063354
            ],
            "min" : [
                -3.3582966327667236,
                -2.04410982131958,
                -1.8197664022445679
            ],
            "type" : "VEC3"
        },
        {
            "bufferView" : 17,
            "componentType" : 5126,
            "count" : 93,
            "type" : "VEC3"
        },
        {
            "bufferView" : 18,
            "componentType" : 5126,
            "count" : 93,
            "type" : "VEC2"
        },
        {
            "bufferView" : 19,
            "componentType" : 5123,
            "count" : 348,
            "type" : "SCALAR"
        },
        {
            "bufferView" : 20,
            "componentType" : 5126,
            "count" : 58,
            "max" : [
                0.9434836506843567,
                2.0399999618530273,
                0.9434838891029358
            ],
            "min" : [
                -0.9434836506843567,
                1.452817440032959,
                -0.9434836506843567
            ],
            "type" : "VEC3"
        },
        {
            "bufferView" : 21,
            "componentType" : 5126,
            "count" : 58,
            "type" : "VEC3"
        },
        {
            "bufferView" : 22,
            "componentType" : 5126,
            "count" : 58,
            "type" : "VEC2"
        },
        {
            "bufferView" : 23,
            "componentType" : 5123,
            "count" : 210,
            "type" : "SCALAR"
        },
        {
            "bufferView" : 24,
            "componentType" : 5126,
            "count" : 17,
            "max" : [
                0.5430411100387573,
                0.7910594344139099,
                -0.6814320683479309
            ],
            "min" : [
                -0.5430411100387573,
                -0.5720484852790833,
                -1.5690275430679321
            ],
            "type" : "VEC3"
        },
        {
            "bufferView" : 25,
            "componentType" : 5126,
            "count" : 17,
            "type" : "VEC3"
        },
        {
            "bufferView" : 26,
            "componentType" : 5126,
            "count" : 17,
            "type" : "VEC2"
        },
        {
            "bufferView" : 27,
            "componentType" : 5123,
            "count" : 72,
            "type" : "SCALAR"
        },
        {
            "bufferView" : 28,
            "componentType" : 5126,
            "count" : 240,
            "max" : [
                10
            ],
            "min" : [
                0.041666666666666664
            ],
            "type" : "SCALAR"
        },
        {
            "bufferView" : 29,
            "componentType" : 5126,
            "count" : 240,
            "type" : "VEC4"
        }
    ],
    "bufferViews" : [
        {
            "buffer" : 0,
            "byteLength" : 852,
            "byteOffset" : 0
        },
        {
            "buffer" : 0,
            "byteLength" : 852,
            "byteOffset" : 852
        },
        {
            "buffer" : 0,
            "byteLength" : 568,
            "byteOffset" : 1704
        },
        {
            "buffer" : 0,
            "byteLength" : 612,
            "byteOffset" : 2272
        },
        {
            "buffer" : 0,
            "byteLength" : 384,
            "byteOffset" : 2884
        },
        {
            "buffer" : 0,
            "byteLength" : 384,
            "byteOffset" : 3268
        },
        {
            "buffer" : 0,
            "byteLength" : 256,
            "byteOffset" : 3652
        },
        {
            "buffer" : 0,
            "byteLength" : 228,
            "byteOffset" : 3908
        },
        {
            "buffer" : 0,
            "byteLength" : 324,
            "byteOffset" : 4136
        },
        {
            "buffer" : 0,
            "byteLength" : 324,
            "byteOffset" : 4460
        },
        {
            "buffer" : 0,
            "byteLength" : 216,
            "byteOffset" : 4784
        },
        {
            "buffer" : 0,
            "byteLength" : 192,
            "byteOffset" : 5000
        },
        {
            "buffer" : 0,
            "byteLength" : 2352,
            "byteOffset" : 5192
        },
        {
            "buffer" : 0,
            "byteLength" : 2352,
            "byteOffset" : 7544
        },
        {
            "buffer" : 0,
            "byteLength" : 1568,
            "byteOffset" : 9896
        },
        {
            "buffer" : 0,
            "byteLength" : 1860,
            "byteOffset" : 11464
        },
        {
            "buffer" : 0,
            "byteLength" : 1116,
            "byteOffset" : 13324
        },
        {
            "buffer" : 0,
            "byteLength" : 1116,
            "byteOffset" : 14440
        },
        {
            "buffer" : 0,
            "byteLength" : 744,
            "byteOffset" : 15556
        },
        {
            "buffer" : 0,
            "byteLength" : 696,
            "byteOffset" : 16300
        },
        {
            "buffer" : 0,
            "byteLength" : 696,
            "byteOffset" : 16996
        },
        {
            "buffer" : 0,
            "byteLength" : 696,
            "byteOffset" : 17692
        },
        {
            "buffer" : 0,
            "byteLength" : 464,
            "byteOffset" : 18388
        },
        {
            "buffer" : 0,
            "byteLength" : 420,
            "byteOffset" : 18852
        },
        {
            "buffer" : 0,
            "byteLength" : 204,
            "byteOffset" : 19272
        },
        {
            "buffer" : 0,
            "byteLength" : 204,
            "byteOffset" : 19476
        },
        {
            "buffer" : 0,
            "byteLength" : 136,
            "byteOffset" : 19680
        },
        {
            "buffer" : 0,
            "byteLength" : 144,
            "byteOffset" : 19816
        },
        {
            "buffer" : 0,
            "byteLength" : 960,
            "byteOffset" : 19960
        },
        {
            "buffer" : 0,
            "byteLength" : 3840,
            "byteOffset" : 20920
        }
    ],
    "buffers" : [
        {
            "byteLength" : 24760,
            "uri" : "data:application/octet-stream;base64,"
        }
    ]
}
