{
    "asset" : {
        "generator" : "Khronos glTF Blender I/O v1.5.17",
        "version" : "2.0"
    },
    "scene" : 0,
    "scenes" : [
        {
            "name" : "Scene",
            "nodes" : [
                0,
                1,
                2
            ]
        }
    ],
    "nodes" : [
        {
            "name" : "Light",
            "rotation" : [
                0.16907575726509094,
                0.7558803558349609,
                -0.27217137813568115,
                0.570947527885437
            ],
            "translation" : [
                -0.1370840072631836,
                1.8157572746276855,
                0.5954493284225464
            ]
        },
        {
            "name" : "Camera",
            "rotation" : [
                0.483536034822464,
                0.33687159419059753,
                -0.20870360732078552,
                0.7804827094078064
            ],
            "translation" : [
                7.358891487121582,
                4.958309173583984,
                6.925790786743164
            ]
        },
        {
            "mesh" : 0,
            "name" : "Cylinder.001",
            "rotation" : [
                0.7071068286895752,
                0,
                0,
                0.7071068286895752
            ],
            "translation" : [
                0.0022122219670563936,
                -0.04375321418046951,
                0.0031668811570852995
            ]
        }
    ],
    "animations" : [
        {
            "channels" : [
                {
                    "sampler" : 0,
                    "target" : {
                        "node" : 2,
                        "path" : "rotation"
                    }
                }
            ],
            "name" : "Cylinder.001Action",
            "samplers" : [
                {
                    "input" : 4,
                    "interpolation" : "LINEAR",
                    "output" : 5
                }
            ]
        }
    ],
    "materials" : [
        {
            "doubleSided" : true,
            "name" : "Material.002",
            "pbrMetallicRoughness" : {
                "baseColorFactor" : [
                    0.8000000715255737,
                    0.7083266377449036,
                    0.0681721419095993,
                    1
                ],
                "metallicFactor" : 0,
                "roughnessFactor" : 0.5
            }
        }
    ],
    "meshes" : [
        {
            "name" : "Cylinder.001",
            "primitives" : [
                {
                    "attributes" : {
                        "POSITION" : 0,
                        "NORMAL" : 1,
                        "TEXCOORD_0" : 2
                    },
                    "indices" : 3,
                    "material" : 0
                }
            ]
        }
    ],
    "accessors" : [
        {
            "bufferView" : 0,
            "componentType" : 5126,
            "count" : 60,
            "max" : [
                0.4828265905380249,
                0.04624680429697037,
                0.4094318151473999
            ],
            "min" : [
                -0.48725101351737976,
                -0.04624681919813156,
                -0.5131668448448181
            ],
            "type" : "VEC3"
        },
        {
            "bufferView" : 1,
            "componentType" : 5126,
            "count" : 60,
            "type" : "VEC3"
        },
        {
            "bufferView" : 2,
            "componentType" : 5126,
            "count" : 60,
            "type" : "VEC2"
        },
        {
            "bufferView" : 3,
            "componentType" : 5123,
            "count" : 108,
            "type" : "SCALAR"
        },
        {
            "bufferView" : 4,
            "componentType" : 5126,
            "count" : 240,
            "max" : [
                10
            ],
            "min" : [
                0.041666666666666664
            ],
            "type" : "SCALAR"
        },
        {
            "bufferView" : 5,
            "componentType" : 5126,
            "count" : 240,
            "type" : "VEC4"
        }
    ],
    "bufferViews" : [
        {
            "buffer" : 0,
            "byteLength" : 720,
            "byteOffset" : 0
        },
        {
            "buffer" : 0,
            "byteLength" : 720,
            "byteOffset" : 720
        },
        {
            "buffer" : 0,
            "byteLength" : 480,
            "byteOffset" : 1440
        },
        {
            "buffer" : 0,
            "byteLength" : 216,
            "byteOffset" : 1920
        },
        {
            "buffer" : 0,
            "byteLength" : 960,
            "byteOffset" : 2136
        },
        {
            "buffer" : 0,
            "byteLength" : 3840,
            "byteOffset" : 3096
        }
    ],
    "buffers" : [
        {
            "byteLength" : 6936,
            "uri" : "data:application/octet-stream;base64,"
        }
    ]
}
